Patient4_TMGait_0pt5_01_right_40_EMG.mot
version=1
nRows=26
nColumns=33
inDegrees=no
endheader
time	1LAddLong	2LGlutMax	3LGlutMed	4LIliopsoas	5LSemiMemb	6LBicFemLong	7LRecFem	8LVastMed	9LVastLat	10LGasMed	11LTibAnt	12lTibPost	13LPeroneusLong	14LSol	15LExtDigLong	16LFlexDigLong	17RAddLong	18RGlutMax	19RGlutMed	20RIliopsoas	21RSemiMemb	22RBicFemLong	23RRecFem	24RVastMed	25RVastLat	26RGasMed	27RTibAnt	28RTibPost	29RPeroneusLong	30RSol	31RExtDigLong	32RFlexDigLong
52.65	0.001526	-0.021515	-0.029907	0.012512	-0.012512	0.024567	-0.021515	0.003967	0.026398	-0.15259	0.13718	-0.001831	0.15503	-0.30914	0.40436	-0.017548	-0.004425	-0.10574	0.18631	0.082397	0.077667	-0.083466	0.089264	-0.08606	-0.049896	-0.005951	-0.030212	-0.003815	0.000458	-0.1506	-0.00351	0.004425
52.651	0.000916	-0.003204	0.031891	-0.00351	-0.021057	-0.044861	-0.054474	-0.000763	-0.008545	-0.11368	0.061951	-0.1088	0.18631	-0.51544	0.51575	0.42389	-0.074158	-0.080414	0.13138	-0.010529	0.072937	-0.083618	0.16708	-0.05661	-0.057831	-0.004272	0.58395	0.002289	0.067596	-0.17914	-0.002136	0.001984
52.652	-0.000153	-0.000153	0.019836	-0.003204	0.007629	-0.069427	-0.067139	0.007782	-0.001221	-0.16388	-0.031738	0.12131	0.063324	-0.31784	0.11444	-0.042572	-0.11047	-0.043335	0.069885	-0.054932	0.072479	-0.06073	0.12711	-0.050507	-0.049438	0.003052	0.82794	-0.00473	0.20523	-0.20798	-0.003967	0.002289
52.653	0	0.012054	0.012665	0.005951	0.009766	0.025177	0.019684	0.005951	-0.018158	-0.5481	-0.009613	0.22873	-0.067139	-0.14679	-0.022278	-0.26062	-0.12848	-0.005493	0.083923	-0.054321	0.10086	-0.057526	0.016632	-0.086517	-0.026093	0.009003	0.33478	-0.000305	0.24826	-0.242	-0.001831	0.008392
52.654	0.013885	0.035553	0.009918	0.011902	-0.020905	0.069427	0.10895	0.003662	-0.060577	-1.0081	-0.008087	0.023041	-0.15366	0.23941	-0.096588	-0.45181	-0.09903	0.062866	0.19073	-0.016937	0.10239	-0.033417	-0.059357	-0.063782	-0.039978	0.007782	0.031281	-0.003967	0.21606	-0.23468	-0.003052	0.008392
52.655	0.007477	0.045319	-0.010223	0.006866	-0.005493	0.067444	0.074615	0.000153	-0.072327	-0.46997	0.017853	-0.15595	-0.17639	0.32913	-0.031738	-0.34424	-0.049591	0.11688	0.12711	0.000305	0.13001	-0.02121	-0.17425	-0.058136	-0.024109	0.004425	-0.060883	-0.00061	0.062714	-0.14389	-0.001831	0.013123
52.656	0.001526	0.026703	-0.036469	0.011749	0.018158	0.022125	0.05722	0.009613	-0.003967	-0.087585	0.053558	-0.10452	-0.14984	0.1181	0.08667	0.75546	-0.019836	0.13367	0.067749	0.026245	0.14175	0.016632	-0.14877	-0.063782	-0.032043	0.001373	-0.12024	-0.004425	-0.090485	0.046844	-0.003662	0.00351
52.657	0.000763	0.030212	-0.032654	0.012817	0.024872	0.025787	0.018005	0.02243	-0.000458	0.015717	0.02121	-0.037537	-0.095978	0.065613	0.1033	0.024261	-0.016327	0.14679	0.15305	-0.010223	0.15274	0.011749	-0.14404	-0.055237	-0.03891	-0.012054	-0.26154	-0.00412	-0.10971	0.24139	-0.002747	0.001068
52.658	0.007172	0.026703	-0.024719	0.020294	0.019531	0.001984	-0.045319	0.017242	0.032196	-0.032501	-0.039368	0.020752	-0.075378	-0.10895	0.076599	0.030212	-0.000305	0.14343	0.014191	-0.018158	0.13641	0.005951	-0.074158	-0.091248	-0.048828	-0.016174	-0.30014	-0.003357	-0.14938	0.3595	-0.000305	-0.006256
52.659	0.002747	0.011292	-0.016937	0.026245	0.023956	-0.011139	-0.076904	0.005188	0.079498	-0.15915	-0.046997	0.059204	-0.048676	0.048676	0.049591	-0.043488	0.012054	0.13992	-0.13596	0.013885	0.13336	0.005035	-0.034943	-0.10101	-0.043793	-0.01297	-0.22995	-0.003204	-0.12817	0.3096	-0.005341	-0.005341
52.66	0.00061	0.018463	-0.022888	-0.004883	0.013428	-0.00412	-0.085907	-0.018921	0.081482	-0.18433	0.040436	0.07782	0.018921	0.061951	0.050659	0.028992	0.018158	0.16937	-0.14725	-0.002441	0.13184	0.015106	-0.029297	-0.075226	-0.024414	-0.007172	0.12756	-0.002747	-0.012054	0.19394	-0.000916	-0.016174
52.661	-0.00351	0.038757	-0.023499	0.009766	0.018921	-0.023041	-0.066528	-0.030212	-0.010681	-0.18372	0.12222	-0.047913	-0.016174	-0.35599	0.059052	0.001221	0.014038	0.21896	-0.14481	0.022888	0.13641	0.029602	-0.016022	-0.081329	-0.056	0.000763	0.34561	-0.001221	-0.01297	0.060883	-0.004272	-0.009613
52.662	-0.006866	0.063782	-0.021973	0	0.008087	-0.043182	-0.070343	-0.02243	0.034485	-0.1799	0.17136	0.14343	-0.0354	-0.31433	0.095367	0	0.02655	0.19989	-0.057068	0.047302	0.12344	0.00061	0.061798	-0.044861	-0.033722	0.005798	0.37735	-0.00885	0.54108	-0.045166	-0.000763	-0.010071
52.663	-0.001984	0.045471	-0.033417	0.014648	0.001221	-0.012207	-0.095978	-0.007782	0.036774	-0.043182	0.20401	0.28107	-0.024567	-0.30518	0.10971	0.018311	0.012665	0.23804	-0.11948	0.095978	0.10132	0.007477	0.12848	-0.044098	-0.028992	0	0.14893	-0.003357	0.42252	-0.079651	-0.003662	-0.006409
52.664	-0.005798	0.096283	-0.024414	0.007629	-0.022278	0.01236	-0.072937	-0.011292	0.066223	0.29373	0.085144	-0.11368	0.009918	-0.1358	0.06958	-0.002747	0.014038	0.25681	-0.10941	0.081024	0.10727	0.001221	0.1474	-0.037689	-0.022583	-0.00061	0.009155	-0.003662	-0.29144	-0.049286	-0.002594	-0.007019
52.665	-0.013885	0.093231	-0.027924	-0.003662	-0.065308	0.029297	-0.03067	-0.006714	-0.041046	0.29465	-0.063629	-0.14481	0.026245	-0.027161	0.047302	-0.006714	0.002594	0.25406	-0.10422	0.061493	0.10284	0.016327	0.18448	-0.04776	-0.029449	-0.007324	0.20126	-0.004272	-0.24841	-0.032654	-0.003052	-0.00412
52.666	-0.009613	0.14099	-0.006409	0.005646	-0.10712	0.040283	-0.002594	-0.012207	-0.045166	0.026855	-0.063019	-0.088043	-0.010376	0.089417	0.011902	-0.001678	-0.003815	0.24689	-0.054016	-0.033417	0.072327	0.010529	0.21439	0.001831	-0.010986	-0.002289	0.46722	-0.007019	-0.016785	-0.032196	-0.002441	-0.004272
52.667	-0.004578	0.15503	-0.023041	0.006866	-0.046692	-0.017548	-0.007019	-0.016937	0.009308	-0.072021	0.06485	-0.062256	-0.049896	0.1564	0.21255	-0.018463	-0.001068	0.25818	0.19424	-0.066528	0.071106	0.032043	0.29541	-0.031586	-0.018463	0	0.59586	-0.002594	0.000305	-0.009613	-0.001068	0.001221
52.668	0.009155	0.10895	0.011292	0.006409	0.051422	-0.046844	-0.003662	-0.026855	-0.067444	-0.058746	0.22018	-0.032349	-0.042419	0.058746	0.1796	-0.020905	-0.018768	0.2092	0.28671	-0.14221	0.073547	0.005798	0.28564	-0.035858	-0.018005	-0.000916	0.21606	-0.00412	0.1294	0.007477	-0.002136	0.002289
52.669	0.002747	0.040894	-0.014648	0.005188	0.10773	-0.035858	0.005188	-0.028839	-0.10651	-0.08606	0.29098	0.016479	-0.057526	-0.009766	0.11993	-0.010681	-0.011902	0.22095	0.20783	-0.19699	0.066376	0.013428	0.28366	0.006714	0.014496	-0.002747	-0.20477	-0.002136	0.097504	-0.045013	-0.001984	0.002289
52.67	-0.003967	0.043945	-0.068512	0.002289	0.077972	0.017853	0.006256	-0.014038	-0.056152	-0.085144	0.27618	0.013123	-0.05249	-0.010681	-0.035553	-0.003662	0.009766	0.28366	-0.045776	-0.20813	0.07782	-0.020142	0.25925	-0.023193	0.00473	-0.007477	0.055695	0.009918	-0.096283	-0.10422	0.000458	-0.005798
52.671	0.027771	-0.003052	0.071564	0.020752	0.016327	0.005035	0.00473	-0.010376	-0.005035	-0.077209	0.11643	0.014038	0.006256	0.083466	-0.28427	-0.009155	0.029297	0.26093	-0.20218	-0.13977	0.075226	-0.010376	0.168	-0.007782	-0.000458	0.004272	0.077057	-0.003815	-0.16144	-0.12009	-0.002899	-0.002441
52.672	-0.006256	-0.066833	0.047607	0.026855	-0.057068	-0.028534	-0.025177	-0.00473	0.008392	-0.049744	-0.083466	0.008698	0.030823	0.040588	-0.16769	-0.027008	0.044556	0.26779	-0.22064	-0.010529	0.081482	-0.007629	0.11246	-0.023956	-0.005951	0.011597	-0.037994	-0.001221	-0.14923	-0.1152	-0.004883	-0.002441
52.673	0.010071	-0.10208	-0.03479	0.023804	-0.036011	-0.051727	0.031891	0.013428	-0.007019	0.007477	-0.18127	0.00473	-0.009308	0.084381	0.047302	-0.019073	0.051727	0.21988	-0.19058	0.20142	0.069122	-0.029907	0.10544	0.021515	-0.011139	0.00824	0.22049	-0.000458	-0.22507	-0.086212	-0.004272	0.005493
52.674	0.012512	-0.10925	-0.047455	0.01236	0.023193	-0.089569	0.007782	0.010223	0.010071	0.037994	-0.14771	-0.015869	-0.082855	0.1149	0.64896	-0.00351	0.049896	0.2681	-0.15106	0.39261	0.059662	-0.021515	0.1207	-0.004425	-0.015106	-0.003052	0.29694	0.00946	-0.20981	-0.048981	-0.001678	0.005341
52.675	0.004883	-0.13367	-0.077362	0.011139	0.052185	-0.08316	0.03418	0.005951	0.040741	0.016327	-0.15915	0.0383	-0.023499	0.11108	0.34821	0.001831	0.071259	0.23651	-0.1181	0.3157	0.073242	-0.009003	0.070953	-0.054626	-0.005798	-0.006256	0.04425	-0.006714	-0.03891	-0.040436	-0.002747	0.002747
